# AST/ASF file generated using VICON BodyLanguage
# -----------------------------------------------
:version 1.10
:name VICON
:units
  mass 1.0
  length 0.45
  angle deg
:documentation
   .ast/.asf automatically generated from VICON data using
   VICON BodyBuilder and BodyLanguage model FoxedUp or BRILLIANT.MOD
:root
   order TX TY TZ RX RY RZ
   axis XYZ
   position 0 0 0  
   orientation 0 0 0 
:bonedata
  begin
     id 1 
     name lhipjoint
     direction 0.678564 -0.644259 0.352817 
     length 2.99514 
     axis 0 0 0  XYZ
  end
  begin
     id 2 
     name lfemur
     direction 0.34202 -0.939693 0  
     length 7.29983  
     axis 0 0 20  XYZ
    dof rx ry rz
    limits (-160.0 20.0)
           (-70.0 70.0)
           (-60.0 70.0)
  end
  begin
     id 3 
     name ltibia
     direction 0.34202 -0.939693 0   
     length 8.59502   
     axis 0 0 20   XYZ
    dof rx
    limits (-10.0 170.0)
  end
  begin
     id 4 
     name lfoot
     direction 0.256607 -0.705022 0.661133   
     length 2.92136   
     axis -90 7.62852e-016 20   XYZ
    dof rx rz
    limits (-45.0 90.0)
           (-70.0 20.0)
  end
  begin
     id 5 
     name ltoes
     direction 1.53673e-011 -4.22167e-011 1   
     length 1.31421   
     axis -90 7.62852e-016 20   XYZ
    dof rx
    limits (-90.0 20.0)
  end
  begin
     id 6 
     name rhipjoint
     direction -0.664671 -0.655307 0.358867   
     length 2.94464  
     axis 0 0 0  XYZ 
  end
  begin
     id 7 
     name rfemur
     direction -0.34202 -0.939693 0   
     length 7.1902   
     axis 0 0 -20   XYZ
    dof rx ry rz
    limits (-160.0 20.0)
           (-70.0 70.0)
           (-70.0 60.0)
  end
  begin
     id 8 
     name rtibia
     direction -0.342306 -0.939589 0   
     length 7.92304   
     axis 0 0 -20   XYZ
    dof rx
    limits (-10.0 170.0)
 end
 begin
     id 9 
     name rfoot
     direction -0.135083 -0.371136 0.9187   
     length 2.14777  
     axis -90 -7.62852e-016 -20   XYZ
    dof rx rz
    limits (-45.0 90.0)
           (-20.0 70.0)
  end
  begin
     id 10 
     name rtoes
     direction -1.53535e-011 -4.21537e-011 1   
     length 1.05997   
     axis -90 -7.62852e-016 -20   XYZ
    dof rx
    limits (-90.0 20.0)
  end
  begin
     id 11 
     name lowerback
     direction -0.0195507 0.995133 0.0965771   
     length 2.09792   
     axis 0 0 0   XYZ
    dof rx ry rz
    limits (-20.0 45.0)
           (-30.0 30.0)
           (-30.0 30.0)
  end
  begin
     id 12 
     name upperback
     direction 0.00551419 0.999637 0.0263729   
     length 2.10514   
     axis 0 0 0   XYZ
    dof rx ry rz
    limits (-20.0 45.0)
           (-30.0 30.0)
           (-30.0 30.0)
  end
  begin
     id 13 
     name thorax
     direction 0.0138853 0.999728 -0.0187549   
     length 2.12411   
     axis 0 0 0   XYZ
    dof rx ry rz
    limits (-20.0 45.0)
           (-30.0 30.0)
           (-30.0 30.0)
  end
  begin
     id 14 
     name lowerneck
     direction 0.00575564 0.995441 0.0952053   
     length 2.98955   
     axis 0 0 0   XYZ
    dof rx ry rz
    limits (-20.0 45.0)
           (-30.0 30.0)
           (-30.0 30.0)
  end
  begin
     id 15 
     name upperneck
     direction 0.0362743 0.998452 -0.0421753   
     length 3.03688   
     axis 0 0 0   XYZ
    dof rx ry rz
    limits (-20.0 45.0)
           (-30.0 30.0)
           (-30.0 30.0)
  end
  begin
     id 16
     name head
     direction -0.0138164 0.799054 0.6011  
     length 1.47017  
     axis 0 0 0   XYZ
    dof rx ry rz
    limits (-20.0 45.0)
           (-30.0 30.0)
           (-30.0 30.0)
  end
  begin
     id 17 
     name lclavicle
     direction 0.925636 0.378361 -0.006363  
     length 3.33831  
     axis 0 0 0   XYZ
    dof ry rz
    limits (-20.0 10.0)
           (0.0 20.0)
  end
  begin
     id 18 
     name lhumerus
     direction 1 -4.48983e-011 -5.50319e-028   
     length 4.79344   
     axis -180 -30 -90   XYZ
    dof rx ry rz
    limits (-60.0 90.0)
           (-90.0 90.0)
           (-90.0 90.0)
  end
  begin
     id 19
     name lradius
     direction 1 -4.48905e-011 9.20478e-027   
     length 2.94221   
     axis -180 -30 -90   XYZ
    dof rx
    limits (-10.0 170.0)
  end
  begin
     id 20
     name lwrist
     direction 1 -4.4898e-011 2.08228e-026   
     length 1.4711   
     axis -1.38353e-014 90 90   XYZ
    dof ry
    limits (-180.0 0.0)
 end
  begin
     id 21 
     name lhand
     direction 1 -4.48957e-011 4.16456e-026   
     length 0.889984   
     axis -2.65735e-014 90 90   XYZ
    dof rx rz
    limits (-90.0 90.0)
           (-45.0 45.0)
  end
  begin
     id 22 
     name lfingers
     direction 1 -4.49044e-011 8.32913e-026   
     length 0.717528   
     axis -5.3147e-014 90 90   XYZ
    dof rx
    limits (0.0 90.0)
  end
  begin
     id 23
     name lthumb
     direction 0.707107 -6.35171e-011 0.707107   
     length 1.03023   
     axis -90 45 2.85299e-015   XYZ
    dof rx rz
    limits (-45.0 45.0)
           (-45.0 45.0)
  end
  begin
     id 24 
     name rclavicle
     direction -0.892514 0.445149 0.0725343   
     length 3.17271  
     axis 0 0 0   XYZ 
    dof ry rz
    limits (-10.0 20.0)
           (-20.0 0.0)
  end
  begin
     id 25 
     name rhumerus
     direction -1 -4.48952e-011 5.59695e-028  
     length 5.4863   
     axis -180 30 90   XYZ
    dof rx ry rz
    limits (-90.0 60.0)
           (-90.0 90.0)
           (-90.0 90.0)
  end
  begin
     id 26 
     name rradius
     direction -1 -4.48963e-011 1.14146e-026   
     length 3.17201   
     axis -180 30 90   XYZ
    dof rx
    limits (-10.0 170.0)
  end
  begin
     id 27 
     name rwrist
     direction -1 -4.49046e-011 2.08228e-026   
     length 1.58601   
     axis -1.38353e-014 -90 -90   XYZ
    dof ry
    limits (-180.0 0.0)
  end
  begin
     id 28
     name rhand
     direction -1 -4.48815e-011 4.16456e-026   
     length 0.874513   
     axis -2.65735e-014 -90 -90   XYZ
    dof rx rz
    limits (-90.0 90.0)
           (-45.0 45.0)
  end
  begin
     id 29
     name rfingers
     direction -1 -4.48918e-011 8.32913e-026   
     length 0.705055   
     axis -5.3147e-014 -90 -90   XYZ
    dof rx
    limits (0.0 90.0)
  end
  begin
     id 30
     name rthumb
     direction -0.707107 -6.34858e-011 0.707107   
     length 1.01232   
     axis -90 -45 -2.85299e-015   XYZ
    dof rx rz
    limits (-45.0 45.0)
           (-45.0 45.0)
  end
:hierarchy
  begin
    root lhipjoint rhipjoint lowerback
    lhipjoint lfemur
    lfemur ltibia
    ltibia lfoot
    lfoot ltoes
    rhipjoint rfemur
    rfemur rtibia
    rtibia rfoot
    rfoot rtoes
    lowerback upperback
    upperback thorax
    thorax lowerneck lclavicle rclavicle
    lowerneck upperneck
    upperneck head
    lclavicle lhumerus
    lhumerus lradius
    lradius lwrist
    lwrist lhand lthumb
    lhand lfingers
    rclavicle rhumerus
    rhumerus rradius
    rradius rwrist
    rwrist rhand rthumb
    rhand rfingers
  end

#!OML:ASF F:\VICON\USERDATA\INSTALL\rory3\rory3.ASF
:FULLY-SPECIFIED
:DEGREES
195
root 3.12923 18.5095 -0.69844 -6.57727 88.2339 -19.3843
lowerback -12.488 -1.3481 -1.94616
upperback -6.52971 -1.30789 3.06725
thorax 0.272132 -0.426563 4.13357
lowerneck -13.397 -12.2527 -0.469204
upperneck 3.88028 34.1347 1.35225
head 24.3614 28.5513 179.886
rclavicle 1.26228e-014 -2.70347e-014
rhumerus -45.0226 56.0501 -97.0388
rradius 81.4776
rwrist -91.512
rhand -3.37933 -22.6172
rfingers 7.12502
rthumb 22.3499 -51.3445
lclavicle 1.26228e-014 -2.70347e-014
lhumerus 22.1303 -8.86519 44.9676
lradius 117.745
lwrist 38.9019
lhand 2.89589 0.475043
lfingers 7.12502
lthumb 28.3611 28.3469
rfemur -12.3572 17.4579 18.0714
rtibia 11.3793
rfoot -17.1093 -18.3165
rtoes -13.8558
lfemur -13.4261 -4.02276 -21.8943
ltibia 16.3299
lfoot -3.23062 4.00197
ltoes -9.8672
196
root 3.12964 18.5085 -0.700627 -6.15383 88.2341 -18.8957
lowerback -12.3794 -1.38034 -1.90645
upperback -6.58147 -1.35328 3.0923
thorax 0.163063 -0.446626 4.13305
lowerneck -13.2592 -12.2629 -0.487312
upperneck 3.90828 34.1281 1.33902
head 24.3505 28.4701 179.948
rclavicle 1.39149e-015 1.98785e-014
rhumerus -45.3285 56.2173 -97.4327
rradius 81.9678
rwrist -91.9837
rhand -3.3165 -22.6314
rfingers 7.12502
rthumb 22.4102 -51.3514
lclavicle 1.39149e-015 1.98785e-014
lhumerus 21.9555 -9.40584 44.528
lradius 117.671
lwrist 38.8386
lhand 2.88813 0.236527
lfingers 7.12502
lthumb 28.3537 28.1096
rfemur -12.3117 17.4313 18.0726
rtibia 11.428
rfoot -17.0935 -18.3046
rtoes -13.9195
lfemur -13.3311 -4.07232 -21.919
ltibia 16.3063
lfoot -3.21403 3.96932
ltoes -9.97308
197
root 3.13221 18.5075 -0.701261 -5.07229 88.1999 -17.7875
lowerback -12.3198 -1.37438 -1.86574
upperback -6.64553 -1.3458 3.08102
thorax 0.0621613 -0.440247 4.10015
lowerneck -13.1512 -12.2749 -0.477777
upperneck 3.95493 34.1837 1.3617
head 24.3781 28.5174 179.98
rclavicle 1.02374e-014 -9.54166e-015
rhumerus -45.5299 56.1512 -97.7103
rradius 82.547
rwrist -92.2243
rhand -3.27633 -22.6873
rfingers 7.12502
rthumb 22.4487 -51.4026
lclavicle 1.02374e-014 -9.54166e-015
lhumerus 21.8378 -10.094 44.1154
lradius 117.544
lwrist 38.485
lhand 2.89263 -0.293816
lfingers 7.12502
lthumb 28.358 27.5785
rfemur -12.2694 17.4179 18.0571
rtibia 11.4141
rfoot -17.1053 -18.2952
rtoes -14.1626
lfemur -13.2609 -3.99021 -21.9575
ltibia 16.2558
lfoot -3.30594 3.96187
ltoes -10.0133
198
root 3.13759 18.5075 -0.702428 -3.98058 88.1713 -16.6779
lowerback -12.3694 -1.36258 -1.81852
upperback -6.67184 -1.33187 3.06614
thorax 0.0588816 -0.433234 4.05911
lowerneck -13.0502 -12.2718 -0.512445
upperneck 4.00051 34.2417 1.38601
head 24.3837 28.573 179.953
rclavicle 1.68967e-015 -6.36111e-015
rhumerus -45.5864 55.8598 -97.8152
rradius 83.2105
rwrist -92.3818
rhand -3.2236 -22.994
rfingers 7.12502
rthumb 22.4994 -51.7033
lclavicle 1.68967e-015 -6.36111e-015
lhumerus 21.7077 -10.8424 43.6836
lradius 117.479
lwrist 38.2011
lhand 2.88064 -0.650243
lfingers 7.12502
lthumb 28.3465 27.224
rfemur -12.2289 17.4664 18.0257
rtibia 11.419
rfoot -17.1745 -18.3299
rtoes -14.1416
lfemur -13.188 -3.90364 -22.0027
ltibia 16.1954
lfoot -3.35493 4.01389
ltoes -10.0502
199
root 3.14158 18.5085 -0.704939 -4.40486 88.1592 -17.0537
lowerback -12.3796 -1.35093 -1.71902
upperback -6.67715 -1.32585 3.07563
thorax 0.0565911 -0.431974 4.01319
lowerneck -12.9847 -12.2545 -0.599337
upperneck 4.02464 34.2849 1.39141
head 24.3796 28.6936 179.93
rclavicle 6.36111e-015 1.90833e-014
rhumerus -45.5983 55.6523 -97.8696
rradius 83.9179
rwrist -92.5909
rhand -3.1704 -23.2336
rfingers 7.12502
rthumb 22.5504 -51.9367
lclavicle 6.36111e-015 1.90833e-014
lhumerus 21.504 -11.6186 43.16
lradius 117.514
lwrist 38.1762
lhand 2.9653 -0.635848
lfingers 7.12502
lthumb 28.4274 27.2249
rfemur -12.1837 17.6178 18.0345
rtibia 11.4803
rfoot -17.3018 -18.4506
rtoes -13.8635
lfemur -13.0789 -3.93874 -21.9946
ltibia 16.1343
lfoot -3.24601 3.98965
ltoes -9.93321
200
root 3.14257 18.5068 -0.706337 -2.68759 88.1509 -15.2821
lowerback -12.3345 -1.34384 -1.70209
upperback -6.68369 -1.31858 3.05895
thorax 0.0242315 -0.428698 3.98746
lowerneck -12.9627 -12.21 -0.658129
upperneck 4.05295 34.3594 1.42462
head 24.3717 28.8281 179.83
rclavicle -2.03754e-014 1.19271e-014
rhumerus -45.6148 55.5932 -97.9411
rradius 84.6746
rwrist -92.679
rhand -2.87953 -23.2677
rfingers 7.12502
rthumb 22.8296 -51.9366
lclavicle -2.03754e-014 1.19271e-014
lhumerus 21.3004 -12.4382 42.5723
lradius 117.55
lwrist 38.2479
lhand 3.26869 -0.499233
lfingers 7.12502
lthumb 28.7173 27.3128
rfemur -12.1666 17.6268 17.9884
rtibia 11.5739
rfoot -17.3824 -18.4506
rtoes -13.7806
lfemur -12.975 -3.91074 -22.0664
ltibia 16.0655
lfoot -3.29263 3.93542
ltoes -9.97367
201
root 3.14377 18.505 -0.70777 -0.201694 88.1205 -12.7902
lowerback -12.3605 -1.34563 -1.72525
upperback -6.68345 -1.31833 3.05917
thorax 0.0389084 -0.428178 4.00063
lowerneck -12.9274 -12.1851 -0.705568
upperneck 4.05341 34.3081 1.43015
head 24.3064 28.7683 179.738
rclavicle 8.64713e-015 4.77083e-015
rhumerus -45.4466 55.5977 -97.8689
rradius 85.3963
rwrist -92.6827
rhand -2.54389 -23.2603
rfingers 7.12502
rthumb 23.1516 -51.8891
lclavicle 8.64713e-015 4.77083e-015
lhumerus 21.0714 -13.2958 42.0737
lradius 117.579
lwrist 38.2248
lhand 3.65156 -0.468247
lfingers 7.12502
lthumb 29.083 27.2812
rfemur -12.1941 17.4503 17.9153
rtibia 11.6289
rfoot -17.3715 -18.2324
rtoes -13.9074
lfemur -12.9554 -3.81178 -22.1649
ltibia 16.0574
lfoot -3.37095 3.97565
ltoes -9.99218
202
root 3.14678 18.5043 -0.709487 1.35794 88.0939 -11.2304
lowerback -12.4281 -1.35752 -1.72278
upperback -6.66543 -1.33474 3.06841
thorax 0.0956463 -0.437517 4.00602
lowerneck -12.9148 -12.182 -0.726368
upperneck 4.01644 34.1522 1.39942
head 24.2119 28.5562 179.699
rclavicle -4.57205e-015 2.22639e-014
rhumerus -45.1538 55.6669 -97.7319
rradius 86.072
rwrist -92.7138
rhand -2.15241 -23.0131
rfingers 7.12502
rthumb 23.5272 -51.5943
lclavicle -4.57205e-015 2.22639e-014
lhumerus 20.8314 -14.1814 41.5922
lradius 117.617
lwrist 38.0905
lhand 3.9799 -0.420083
lfingers 7.12502
lthumb 29.3965 27.2748
rfemur -12.2565 17.3506 17.8646
rtibia 11.7478
rfoot -17.3693 -18.0971
rtoes -14.1246
lfemur -12.9323 -3.72274 -22.2387
ltibia 16.0408
lfoot -3.43535 4.00477
ltoes -10.0928
203
root 3.14915 18.5032 -0.70904 0.217098 88.0185 -12.3656
lowerback -12.4768 -1.35723 -1.64929
upperback -6.64967 -1.34248 3.11539
thorax 0.138503 -0.443078 4.01202
lowerneck -12.8982 -12.1679 -0.772433
upperneck 3.97471 33.9852 1.36143
head 24.099 28.3218 179.644
rclavicle -2.98177e-015 1.59028e-015
rhumerus -44.7603 55.867 -97.5779
rradius 86.7249
rwrist -92.9014
rhand -1.89673 -22.7561
rfingers 7.12502
rthumb 23.7724 -51.3055
lclavicle -2.98177e-015 1.59028e-015
lhumerus 20.5489 -15.2056 41.0473
lradius 117.628
lwrist 37.6381
lhand 3.97582 -0.522468
lfingers 7.12502
lthumb 29.3926 27.1731
rfemur -12.3065 17.3864 17.9193
rtibia 11.8277
rfoot -17.3417 -18.0439
rtoes -13.9281
lfemur -12.9104 -3.61978 -22.2017
ltibia 16.0317
lfoot -3.44753 3.99557
ltoes -10.0825
204
root 3.15084 18.5023 -0.71028 1.707 87.9659 -10.8838
lowerback -12.5334 -1.35818 -1.63961
upperback -6.65048 -1.34389 3.12155
thorax 0.168108 -0.444004 4.01224
lowerneck -12.8666 -12.1493 -0.803017
upperneck 3.96627 33.9127 1.35538
head 24.0312 28.2017 179.577
rclavicle -8.15017e-015 3.18055e-015
rhumerus -44.3524 55.9988 -97.4006
rradius 87.3972
rwrist -93.0351
rhand -1.53118 -22.712
rfingers 7.12502
rthumb 24.123 -51.2154
lclavicle -8.15017e-015 3.18055e-015
lhumerus 20.2866 -16.3902 40.511
lradius 117.573
lwrist 36.9897
lhand 3.85657 -0.790869
lfingers 7.12502
lthumb 29.2788 26.9246
rfemur -12.352 17.3847 17.8638
rtibia 11.8813
rfoot -17.2984 -17.9999
rtoes -13.9964
lfemur -12.9013 -3.53821 -22.2668
ltibia 16.004
lfoot -3.44237 3.98394
ltoes -9.96195
205
root 3.15143 18.5039 -0.715785 1.16674 87.9705 -11.4659
lowerback -12.5919 -1.39011 -1.51639
upperback -6.67213 -1.3965 3.15403
thorax 0.179255 -0.471461 3.96916
lowerneck -12.8247 -12.1239 -0.824463
upperneck 3.95535 33.851 1.33502
head 23.9682 28.0304 179.547
rclavicle 3.8763e-015 -3.73715e-014
rhumerus -44.0798 56.1839 -97.331
rradius 88.2109
rwrist -93.2136
rhand -1.47491 -22.4221
rfingers 7.12502
rthumb 24.1769 -50.9183
lclavicle 3.8763e-015 -3.73715e-014
lhumerus 19.9359 -17.5738 40.0242
lradius 117.558
lwrist 36.3213
lhand 3.8972 -0.963518
lfingers 7.12502
lthumb 29.3176 26.7452
rfemur -12.4331 17.3077 17.8616
rtibia 11.9537
rfoot -17.3124 -17.9702
rtoes -14.3679
lfemur -12.9218 -3.5966 -22.2564
ltibia 15.9591
lfoot -3.43789 3.96993
ltoes -9.99972
206
root 3.15271 18.5051 -0.719707 3.51837 87.9755 -9.16203
lowerback -12.6713 -1.44111 -1.52422
upperback -6.69903 -1.46023 3.16304
thorax 0.19919 -0.501935 3.97423
lowerneck -12.7892 -12.085 -0.831335
upperneck 3.9628 33.8794 1.32878
head 23.9483 27.9422 179.53
rclavicle 6.55989e-015 -1.19271e-014
rhumerus -43.8613 56.3236 -97.3189
rradius 89.1163
rwrist -93.633
rhand -2.01518 -21.9193
rfingers 7.12502
rthumb 23.6588 -50.4834
lclavicle 6.55989e-015 -1.19271e-014
lhumerus 19.5839 -18.7511 39.5532
lradius 117.567
lwrist 35.6934
lhand 4.07878 -1.02702
lfingers 7.12502
lthumb 29.4909 26.6512
rfemur -12.5408 17.231 17.7459
rtibia 12.0533
rfoot -17.4023 -17.9195
rtoes -14.2779
lfemur -12.9249 -3.66533 -22.354
ltibia 15.8729
lfoot -3.39237 3.89455
ltoes -9.94004
207
root 3.15411 18.5034 -0.721828 6.17611 87.9473 -6.44105
lowerback -12.653 -1.49204 -1.58286
upperback -6.6958 -1.52278 3.18207
thorax 0.199575 -0.532122 4.01965
lowerneck -12.757 -12.0016 -0.863221
upperneck 4.0131 34.0975 1.35948
head 24.0002 28.1096 179.494
rclavicle 8.64713e-015 -3.18055e-015
rhumerus -43.6008 56.4007 -97.2258
rradius 90.0384
rwrist -93.9427
rhand -2.45208 -21.6926
rfingers 7.12502
rthumb 23.2397 -50.3103
lclavicle 8.64713e-015 -3.18055e-015
lhumerus 19.2627 -19.9341 39.1154
lradius 117.49
lwrist 35.042
lhand 4.22915 -0.98393
lfingers 7.12502
lthumb 29.6344 26.6689
rfemur -12.5033 17.1665 17.6592
rtibia 12.1225
rfoot -17.4584 -17.8296
rtoes -14.1432
lfemur -12.8006 -3.65443 -22.4757
ltibia 15.7991
lfoot -3.36654 3.85777
ltoes -9.91616
208
root 3.1559 18.5022 -0.722505 5.44087 87.8744 -7.04659
lowerback -12.5892 -1.49845 -1.52154
upperback -6.64053 -1.54371 3.21535
thorax 0.224416 -0.546469 4.01728
lowerneck -12.7774 -11.9507 -0.88236
upperneck 4.00155 34.1003 1.35699
head 23.972 28.1105 179.456
rclavicle 3.37934e-015 0
rhumerus -43.1083 56.4177 -96.9332
rradius 90.8524
rwrist -94.0874
rhand -2.42753 -21.6392
rfingers 7.12502
rthumb 23.2633 -50.2539
lclavicle 3.37934e-015 0
lhumerus 18.9742 -21.1379 38.7128
lradius 117.357
lwrist 34.4516
lhand 4.41927 -0.910482
lfingers 7.12502
lthumb 29.8159 26.71
rfemur -12.3945 17.2404 17.721
rtibia 12.1986
rfoot -17.4866 -17.8029
rtoes -14.5846
lfemur -12.6025 -3.61252 -22.4659
ltibia 15.7309
lfoot -3.32571 3.8611
ltoes -9.96204
209
root 3.15775 18.5013 -0.723179 5.18583 87.814 -7.22654
lowerback -12.5775 -1.50258 -1.45577
upperback -6.59771 -1.56009 3.23011
thorax 0.263211 -0.558311 3.99297
lowerneck -12.8263 -11.918 -0.869769
upperneck 3.96525 34.0257 1.33923
head 23.9169 27.9747 179.419
rclavicle -1.19271e-015 -2.38542e-015
rhumerus -42.5648 56.4237 -96.619
rradius 91.6245
rwrist -94.2237
rhand -2.24522 -21.4352
rfingers 7.12502
rthumb 23.4382 -50.0277
lclavicle -1.19271e-015 -2.38542e-015
lhumerus 18.6246 -22.3736 38.3492
lradius 117.265
lwrist 33.9595
lhand 4.65183 -1.01134
lfingers 7.12502
lthumb 30.0378 26.5691
rfemur -12.3263 17.2922 17.7509
rtibia 12.2267
rfoot -17.4794 -17.7928
rtoes -14.9327
lfemur -12.4645 -3.56539 -22.4633
ltibia 15.6584
lfoot -3.29567 3.86944
ltoes -9.9543
